<svg width="823" height="900" viewBox="0 0 823 900" fill="none" xmlns="http://www.w3.org/2000/svg">
<g clip-path="url(#clip0_6_2)">
<path d="M238.63 108.91C237.05 111 234.9 112.91 233.97 115.22C229.17 127.34 220.23 129.87 207.73 130.32C166.31 131.79 126.45 140.74 89.92 161.13C46.14 185.56 16.54 221.19 4.97004 270.63C3.27004 286.85 -0.149963 303.1 0.220037 319.27C1.22004 362.47 15.22 402.32 35.05 440.36C36.9 443.92 38 447.86 39.45 451.63C21.45 482.83 8.82004 516 3.14004 551.63C2.09004 560.88 0.420035 570.1 0.140035 579.37C-1.06996 614.77 6.05004 648.16 25.66 678.28C34.66 695.47 48.13 708.9 63.04 720.67C103.04 752.28 150.04 765.9 199.98 768.79C217.71 769.79 231.03 772.96 238.05 790.25C238.15 790.49 238.47 790.65 238.69 790.84C254.41 816.25 274.46 838.709 297.93 857.2C329.78 882.37 365.35 898.42 406.53 899.55C452.74 900.81 492.17 883.46 527.53 854.91C533.344 850.197 538.879 845.152 544.11 839.8C548.023 835.8 551.783 831.697 555.39 827.49C566.28 814.85 576.08 801.28 585.89 787.7C590.09 777.45 596.74 772.11 605.1 770.03C610.601 768.818 616.276 768.611 621.85 769.42C626.08 769.92 630.54 768.47 634.85 767.97C652.672 766.005 670.271 762.383 687.42 757.15C691.633 755.817 695.803 754.397 699.93 752.89C704.057 751.383 708.13 749.733 712.15 747.94C714.503 746.907 716.837 745.837 719.15 744.73C725.23 741.81 731.187 738.597 737.02 735.09C739.453 733.63 741.863 732.113 744.25 730.54C746.037 729.36 747.813 728.15 749.58 726.91C754.88 723.183 760.06 719.183 765.12 714.91C770.979 710.437 776.397 705.415 781.3 699.91C783.71 697.21 785.97 694.42 788.12 691.55C789.19 690.11 790.24 688.65 791.25 687.18C800.37 673.9 807.17 659.06 812.96 643.55C816.553 634.569 819.116 625.209 820.6 615.65C820.81 614.3 821.01 612.94 821.19 611.59C821.657 607.97 821.99 604.333 822.19 600.68C822.61 594.05 822.66 587.37 822.43 580.68C821.11 541.68 810.43 504.87 792.49 470.53C785.27 456.73 781.36 444.77 791.49 431.41C791.571 431.295 791.619 431.16 791.63 431.02C791.63 430.87 791.63 430.71 791.69 430.57C812.59 388.48 824.35 344.37 821.36 297C820.906 284.836 818.834 272.787 815.2 261.17C813.019 254.186 810.328 247.371 807.15 240.78C803.908 232.7 799.889 224.954 795.15 217.65C793.59 215.25 791.97 212.9 790.27 210.6C789.31 209.267 788.31 207.973 787.27 206.72C785.27 204.16 783.14 201.72 780.96 199.25C778.78 196.78 776.51 194.46 774.18 192.15C769.463 187.513 764.502 183.13 759.32 179.02C719.12 146.91 671.63 133.75 621.45 130.79C613.06 130.3 605.73 129.31 599.64 126.43C598.88 126.07 598.14 125.68 597.42 125.26C592.36 122.31 588.27 117.78 585.25 110.73C580.59 104.55 576.1 98.2 571.51 91.95C566.92 85.7 562.22 79.54 557.13 73.72C526.06 38.24 488.8 12.39 441.63 2.85001C437.36 1.98001 433.13 0.95 428.88 0H391.88C390.303 0.706315 388.671 1.28159 387 1.72C320.41 13.84 274.63 54.67 238.63 108.91ZM240.74 216.17C244.89 207.17 248.74 197.96 253.35 189.17C254.74 186.53 258.41 182.98 260.67 183.22C283.27 185.62 305.8 188.73 328.35 191.65C328.45 192.65 328.54 193.65 328.64 194.65L300.25 210.5L227.48 252.14L240.74 216.14M710.39 434.43C710.578 435.285 710.859 436.117 711.23 436.91C719.92 451.05 720.23 451.25 710.3 464.28C699.36 478.67 687.85 492.64 675.07 508.7V391.78L710.39 434.43M199.75 434.05L203.59 371.05C205.23 360.67 206.52 350.23 208.68 339.97C209.45 336.3 211.51 331.97 214.39 329.81C237.55 312.65 261.05 295.95 284.45 279.1C302.29 269.1 319.78 258.5 338.05 249.41C359.2 238.89 380.85 229.3 402.7 220.35C407.7 218.35 415.07 218.99 420.14 221.18C446.14 232.42 471.79 244.56 497.55 256.38L569.71 300.61C582.27 310.13 595.01 319.42 607.24 329.35C610.24 331.82 613.19 336.16 613.61 339.93C617 370.1 619.77 400.35 622.73 430.57C620.33 470.49 617.81 510.41 615.63 550.34C615.03 561.34 610.54 568.97 601.54 575.78C568.32 600.92 533.71 623.78 497.01 643.52C494.18 645.04 491.49 646.8 488.74 648.45C467.47 658.02 446.06 667.31 424.98 677.29C415.53 681.76 406.79 682.47 397.6 677.23C395.38 675.97 392.66 675.56 390.17 674.76C373.51 666.87 356.29 659.95 340.29 650.88C308.98 633.14 278.36 614.21 247.45 595.77C243.55 592.77 239.89 589.37 235.73 586.77C218.12 575.77 203.91 562.62 205.07 539.51C203.64 525.94 201.73 512.4 200.92 498.8C200.06 484.56 200.24 470.26 200 455.98C199.88 448.68 199.84 441.38 199.76 434.09M106.76 441.31L145.76 392.02L147.52 393.16V505.58L145.46 508.09C143.83 505.079 142.034 502.161 140.08 499.35C129.53 485.67 119.08 471.94 108.08 458.56C103.29 452.77 102.25 447.41 106.72 441.27L106.76 441.31ZM187.32 184.74C189.062 184.525 190.822 184.495 192.57 184.65C193.39 184.7 194.19 185.2 196.04 185.87C192.73 195.43 189.45 204.93 186.16 214.44C180.233 234.347 174.307 254.26 168.38 274.18C167.16 278.68 165.38 283.11 164.84 287.69C163.42 300.64 156.84 309.69 147.15 318.41C130.9 333.05 116.43 349.64 101.21 365.41L73.4 397.7C54.64 355.99 46.03 314.62 59.19 270.7C82.77 213.62 131.24 193.53 187.28 184.7L187.32 184.74ZM93.93 678.37C68.1 655.54 53.93 626.96 53 592.54C52.62 578.4 54.57 564.19 55.46 550.02C59.75 537.49 63.96 524.92 68.4 512.44C69.54 509.26 71.4 506.35 73.4 502.44L107.83 541.57C109.15 543.45 110.21 545.57 111.83 547.17C125.13 560.17 138.73 572.89 151.83 586.11C156.16 590.49 159.26 596.11 162.93 601.11C170.09 627.97 177.257 654.823 184.43 681.67L196.63 715.62C157.92 712.24 123.9 701.08 93.93 678.37ZM284.36 680.52L328.55 704.97L328.76 706.97C317.24 709.05 305.76 711.37 294.18 713.14C284.66 714.59 275 715.14 265.48 716.59C259.06 717.59 255.08 715.86 252.57 709.48C248.21 698.36 243.16 687.48 238.39 676.54C235.53 667.77 232.67 659.01 229.06 647.93L284.36 680.5M300.68 787.13L286.52 767.66C295.99 766.19 304.11 765.49 311.94 763.66C342.69 756.25 373.32 748.34 404.08 740.98C408.64 739.89 414.08 739.55 418.43 740.98C454.82 752.59 491.73 761.78 529.7 766.51C531.33 766.71 532.9 767.51 535.59 768.32L521.85 787.21C511.94 796.74 502.67 807.06 492.02 815.67C438.63 858.84 377.78 857.29 325.79 811.73C317 804.03 309.03 795.41 300.68 787.22M570.19 709.03C567.62 715.75 563.59 717.68 556.7 716.65C535.93 713.52 515.09 710.8 492.21 707.65L587.31 649.95L592.83 651.91C585.24 670.91 577.48 689.91 570.19 708.96V709.03ZM670.08 708.3L624.89 717.78C632.83 694.03 640.09 672.32 647.34 650.61C651.49 634.79 655.4 618.9 659.94 603.19C661.34 598.38 663.44 592.92 666.99 589.72C695.16 564.27 721.17 536.91 744.32 506.91C745.39 505.52 746.09 503.84 748.27 502.81C769.86 549.67 779.27 596.36 756.27 644.89C736.82 678.6 705.73 696.52 670.04 708.22C670.41 708.32 670.78 708.44 671.15 708.56C670.82 708.45 670.45 708.33 670.08 708.23V708.3ZM751.08 246.16C762.43 264.6 767.91 284.91 770.31 306.21C769.31 337.61 763.77 367.94 748.92 397.67C746.02 394.31 744.07 391.91 741.92 389.67C718.15 364.36 694.78 338.67 670.31 314.04C663.63 307.31 660.43 300.04 658.17 291.63C653.31 273.517 648.453 255.407 643.6 237.3C638.07 220.2 632.54 203.1 626.34 183.91C676.57 189.66 720.3 204.62 751.05 246.09L751.08 246.16ZM522.28 210.61L491.92 193.61C501.12 191.66 507.99 189.84 514.99 188.8C529.15 186.71 543.39 185.15 557.57 183.14C563.64 182.28 567.47 184.06 569.84 190.03C576.63 207.1 583.84 224.03 590.84 241.03C591.38 244.3 591.92 247.58 592.59 251.6L587.37 249.6L522.31 210.6M495.63 87.04C505.45 95.74 514.41 105.42 523.76 114.64L535.91 132.06C529.05 133.16 523.6 133.67 518.32 134.93C485.32 142.76 452.32 150.84 419.32 158.6C414.96 159.6 409.84 160.6 405.8 159.3C368.63 147.37 330.9 137.91 292.07 133.23C290.73 133.06 289.45 132.33 286.77 131.39L298.77 114.68C312.29 102.22 324.71 88.25 339.52 77.6C390.28 41.09 448.08 44.98 495.63 87.04Z" fill="url(#paint0_linear_6_2)"/>
<path d="M514.34 370.81C498.81 370.66 483.27 370.4 467.76 370.93C460.44 371.18 457.48 368.51 455.85 361.58C450.09 337.11 444.25 312.64 437.33 288.48C435.33 281.68 430.88 274.22 425.33 270.12C411.34 259.91 394.63 266.01 385.78 283.57C358.68 337.37 331.68 391.227 304.78 445.14C303.78 447.22 303.03 449.46 302.17 451.62C295.75 464.1 288.93 476.4 282.98 489.1C273.16 510.05 285.12 528.67 308.26 528.89C323.8 529.04 339.36 529.32 354.89 528.76C362.32 528.49 365.1 531.36 366.72 538.21C372.48 562.71 378.79 587.07 384.89 611.49C387.03 620.07 391.04 627.21 399.39 631.35C413.83 638.5 428.47 632.77 436.84 616.02C463.607 562.407 490.273 508.76 516.84 455.08C516.5 454.77 516.17 454.42 515.84 454.08C516.18 454.45 516.51 454.8 516.84 455.08C524.47 440.28 532.46 425.64 539.63 410.63C549.63 389.91 537.45 371.03 514.34 370.81ZM460.63 451.63C449.05 474.297 437.47 496.963 425.89 519.63C424.31 522.72 422.68 525.78 419.75 531.37C417.58 523.37 416.06 517.74 414.53 512.11C412.84 505.9 411.59 499.53 409.35 493.52C405.1 482.11 396.24 476.58 384.26 476.29C373.18 476.02 362.1 476.23 349.33 476.23C352.8 468.17 355.62 461.61 358.43 455.06C371.17 430.067 383.913 405.067 396.66 380.06C398.23 376.97 399.88 373.92 402.81 368.35C404.96 376.3 406.48 381.92 408.01 387.54C409.69 393.74 410.94 400.1 413.17 406.1C417.4 417.5 426.23 423.1 438.17 423.37C449.24 423.65 460.33 423.43 473.29 423.43C468.63 433.91 464.63 442.75 460.63 451.63Z" fill="#FDC723"/>
</g>
<defs>
<linearGradient id="paint0_linear_6_2" x1="411.32" y1="899.66" x2="411.32" y2="0" gradientUnits="userSpaceOnUse">
<stop offset="0.22" stop-color="#76569F"/>
<stop offset="0.27" stop-color="#7264AA"/>
<stop offset="0.41" stop-color="#6986C3"/>
<stop offset="0.55" stop-color="#62A1D7"/>
<stop offset="0.69" stop-color="#5DB4E5"/>
<stop offset="0.84" stop-color="#5ABFED"/>
<stop offset="1" stop-color="#59C3F0"/>
</linearGradient>
<clipPath id="clip0_6_2">
<rect width="822.64" height="899.67" fill="white"/>
</clipPath>
</defs>
</svg>
